#!OML:ASF F:\VICON\USERDATA\INSTALL\rory3\rory3.ASF
:FULLY-SPECIFIED
:DEGREES
106
root 0.7500400326521475 17.807612816245065 39.94485665532361 -3.3576942294295975 -0.4408030845742451 -0.45870509520529934
lfemur -4.108850501556729 -2.737739476738156 -24.222075211199265
ltibia 27.502410100357544
lfoot -4.986788511080432 -3.7998239304905717
ltoes -8.571103630750962
rfemur -21.918751495790836 -0.9447678204549592 23.886338411763074
rtibia 67.93653338372123
rfoot -3.752442202267951 -9.451013279452996
rtoes 4.229229869449169
lowerback 11.525790929392027 0.16941243387417762 -1.0684957607090229
upperback 0.22710487202074003 0.0127193938201417 1.3205309860405807
thorax -6.268640559642974 0.5553714169801298 1.1165521221328132
lowerneck -16.143703499564406 -3.2570944783455906 -2.842899183822161
upperneck 21.122914927493007 -4.568226606733163 2.0600717905563926
head 9.502620712345399 -2.0468345644431327 0.608395700617674
lclavicle 2.948563821275217e-16 4.288724264888588e-17
lhumerus -32.16396322437373 2.7297950688008683 80.30749550539498
lradius 23.86903907268174
lwrist 7.29596736059239
lhand -29.27456048676476 19.24518369460102
lfingers 7.125020000000001
lthumb -2.595311063124444 49.38868191566321
rclavicle 2.9722547985975505e-16 5.3964605516473314e-17
rhumerus -32.395434526532775 -20.142182055095123 -77.18959350875122
rradius 28.883319199255094
rwrist 2.858881025860601
rhand -17.819530168226144 22.805292392775076
rfingers 7.125020000000001
rthumb 8.55155961260823 -6.822268475888538
107
root 0.7260452368653211 17.787771789591442 40.08754770140908 -3.0663715351493703 -0.14075356677895148 -0.16692089954011413
lfemur -2.4084225331812643 -2.7234641938139466 -24.66118679485268
ltibia 26.38598830850264
lfoot -4.6896509830947295 -4.103025570796169
ltoes -8.519020031197854
rfemur -22.315172948877045 -0.4081500090711616 23.80332826801705
rtibia 60.54786289463385
rfoot -4.109051729960372 -9.785987629844245
rtoes 3.1477460458523976
lowerback 11.543008203436958 -0.060244447685831676 -1.4038018766918696
upperback 0.22094000987383272 -0.3728611575154275 1.3708044187657902
thorax -6.272279835895587 0.34679375206473806 1.477328032475794
lowerneck -16.12459238163332 -3.2608584709642363 -2.8484198510983543
upperneck 21.15338930282089 -4.5695847844359445 2.0871366454933025
head 9.50815650905481 -2.0379452157603586 0.6209772700994918
lclavicle 2.948563819104269e-16 4.288724248110142e-17
lhumerus -32.39631639972415 2.6398940807527973 80.15249221990697
lradius 24.27615466585429
lwrist 7.287169215105598
lhand -29.293693735028263 19.200503058469423
lfingers 7.125020000000001
lthumb -2.6036067043662356 49.34368386984083
rclavicle 2.9722547978287844e-16 5.3964605457518774e-17
rhumerus -32.43190780152285 -19.960899391033927 -76.98632806291498
rradius 28.51208468437028
rwrist 2.802635949891627
rhand -17.821525735248688 22.828161907838396
rfingers 7.125020000000001
rthumb 8.54860928400848 -6.854003922480812
108
root 0.6965379283168803 17.766788252474093 40.17604282159063 -2.7622349372642794 0.12280265544189434 0.024981764818661212
lfemur -0.5337153325467812 -2.601729500428705 -24.955114983431482
ltibia 24.030660508200697
lfoot -4.821565324469613 -4.014638600238102
ltoes -8.870234633717912
rfemur -22.98301925949749 0.42899843739036236 23.036948078284617
rtibia 50.7296814821224
rfoot -4.055156422646937 -10.037669004946943
rtoes 1.876188693402338
lowerback 11.519993701124033 -0.2718932790083344 -1.7138290434141543
upperback 0.19892470159262304 -0.6892406554148967 1.4290374455863555
thorax -6.248182435971677 0.14228365173341573 1.8507797669791377
lowerneck -16.097019898696537 -3.2635316972702872 -2.847005400150979
upperneck 21.168186552933523 -4.574509051955662 2.1201440536661336
head 9.51226433108551 -2.034971837461491 0.6331116178849202
lclavicle 2.9485638239398156e-16 4.288724291345606e-17
lhumerus -32.46544136295528 2.512003738687478 80.08094546651164
lradius 24.74548411705605
lwrist 7.342052025418066
lhand -29.306501300483987 19.18845529245224
lfingers 7.125020000000001
lthumb -2.612926324064115 49.30892266716066
rclavicle 2.9722547984349406e-16 5.396460550419873e-17
rhumerus -32.31239669077283 -19.697330402974483 -76.69209252509488
rradius 28.183667595261436
rwrist 2.835286302557387
rhand -17.815971300890034 22.85660551020774
rfingers 7.125020000000001
rthumb 8.54240774829758 -6.887530250659726
109
root 0.6637570409148397 17.74266733624656 40.48846502822671 -2.4986500981493136 0.3845018068646672 0.17497327533713092
lfemur 1.840134463677649 -2.337362778878791 -24.931973579486254
ltibia 20.735509128482214
lfoot -5.740092701054033 -4.05542768268242
ltoes -9.190142575970427
rfemur -22.656041625825452 1.6623800882121034 22.496595277228398
rtibia 39.4243962719026
rfoot -3.740744447678752 -10.113575838454985
rtoes 0.5499235520413654
lowerback 11.454061606406041 -0.4604743207710458 -1.9788770993814377
upperback 0.16702437505633216 -0.941571620594853 1.495892799020141
thorax -6.193617827761902 -0.0369936682643012 2.2502931082476434
lowerneck -16.064370061688937 -3.2662212532310395 -2.8434050565071023
upperneck 21.179325935804915 -4.575238288222814 2.1398219313639553
head 9.527100219264199 -2.031099862925958 0.6493247750545853
lclavicle 2.9485638205530963e-16 4.28872426741496e-17
lhumerus -32.33629749352741 2.5125976336014997 80.10001318685013
lradius 25.25442225023241
lwrist 7.409088125620521
lhand -29.312107268349042 19.20838464404612
lfingers 7.125020000000001
lthumb -2.6206742543825547 49.290408311762896
rclavicle 2.9722547962880093e-16 5.396460535363631e-17
rhumerus -32.287021328770926 -19.60215498765064 -76.40208169923262
rradius 27.820083998807032
rwrist 3.055695303678827
rhand -17.807490402070947 22.882469187806034
rfingers 7.125020000000001
rthumb 8.5364318038887 -6.914918928303552
